<svg class="svg-icon"
    style="width: 1em; height: 1em;vertical-align: middle;fill: white;overflow: hidden;"
    viewBox="0 0 1024 1024" version="1.1" xmlns="http://www.w3.org/2000/svg" fill="white">
    <path
        d="M644.4 699.4c-6.2-6.2-6-16 0-22.6l132.8-148.8L208 528c-8.8 0-16-7.2-16-16 0-8.8 7.2-16 16-16l569.2 0-132.6-148.8c-5.8-6.8-6.4-16.2-0.2-22.4 6.2-6.2 17-6.6 22.8-0.2 0 0 158.4 174 160 176s4.8 5.6 4.8 11.4-3.2 9.8-4.8 11.4-160 176-160 176c-3 3-7.2 4.6-11.4 4.6C651.6 704 647.6 702.4 644.4 699.4z" />
</svg>